<svg xmlns="http://www.w3.org/2000/svg" fill="none" viewBox="0.46 0.15 79.39 29.6">
<path d="M9.93457 3.87598C10.3936 3.69043 10.916 3.71973 11.502 3.96387C11.9219 4.12988 12.127 4.31543 12.1172 4.52051C12.1074 4.56934 12.0879 4.61328 12.0586 4.65234C11.7363 4.82812 11.4287 5.15039 11.1357 5.61914C10.8428 6.08789 10.5547 6.72266 10.2715 7.52344C9.98828 8.31445 9.75391 9.01758 9.56836 9.63281C9.39258 10.2383 9.16309 11.0586 8.87988 12.0938C10.7451 12.6113 12.332 12.4697 13.6406 11.6689C14.9492 10.8682 15.7402 9.55957 16.0137 7.74316C16.1406 6.89355 16.0869 6.12695 15.8525 5.44336C15.6182 4.75 15.252 4.18848 14.7539 3.75879C14.2559 3.3291 13.6748 2.99219 13.0107 2.74805C12.3467 2.50391 11.6387 2.36719 10.8867 2.33789C9.96875 2.30859 9.07031 2.41113 8.19141 2.64551C7.3125 2.87988 6.5459 3.21191 5.8916 3.6416C5.24707 4.07129 4.71484 4.58398 4.29492 5.17969C3.875 5.77539 3.66504 6.41992 3.66504 7.11328C3.66504 7.79688 3.875 8.51465 4.29492 9.2666C4.38281 9.59863 4.16797 9.94531 3.65039 10.3066C3.14258 10.668 2.69336 10.7607 2.30273 10.585C1.07227 9.75488 0.457031 8.59766 0.457031 7.11328C0.457031 5.6875 0.959961 4.43262 1.96582 3.34863C2.97168 2.26465 4.25586 1.45898 5.81836 0.931641C7.38086 0.394531 9.06055 0.135742 10.8574 0.155273C11.8145 0.165039 12.7373 0.277344 13.626 0.492188C14.5244 0.707031 15.3594 1.03418 16.1309 1.47363C16.9023 1.90332 17.5566 2.42578 18.0938 3.04102C18.6309 3.64648 19.0166 4.37891 19.251 5.23828C19.4854 6.09766 19.5195 7.03027 19.3535 8.03613C19.0898 9.68652 18.4404 11.0684 17.4053 12.1816C16.3701 13.2852 15.0811 13.998 13.5381 14.3203C12.0049 14.6426 10.2812 14.54 8.36719 14.0127C8.20117 14.6279 7.98145 15.4727 7.70801 16.5469C7.44434 17.6211 7.21973 18.4805 7.03418 19.125C6.8584 19.7695 6.69238 20.2627 6.53613 20.6045C6.43848 20.751 6.25781 20.8682 5.99414 20.9561C5.74023 21.0342 5.46191 21.0732 5.15918 21.0732C4.86621 21.0732 4.57813 21.0439 4.29492 20.9854C4.02148 20.9268 3.80176 20.8242 3.63574 20.6777C3.46973 20.5215 3.40625 20.3408 3.44531 20.1357C3.69922 19.5791 3.99219 18.6562 4.32422 17.3672C4.66602 16.0781 5.00781 14.7598 5.34961 13.4121C5.69141 12.0645 6.07227 10.7119 6.49219 9.35449C6.92188 7.9873 7.42969 6.80566 8.01562 5.80957C8.61133 4.80371 9.25098 4.15918 9.93457 3.87598ZM26.7363 8.28516C27.5469 8.31445 28.2354 8.49023 28.8018 8.8125C29.3779 9.13477 29.7881 9.54004 30.0322 10.0283C30.2764 10.5068 30.3936 11.0391 30.3838 11.625C30.374 12.2109 30.2275 12.7773 29.9443 13.3242C29.3779 14.4668 28.4258 15.2676 27.0879 15.7266C25.7598 16.1855 24.2314 16.2148 22.5029 15.8145C22.415 16.7715 22.6348 17.543 23.1621 18.1289C23.6992 18.7148 24.4902 19.0615 25.5352 19.1689C26.082 19.2275 26.6533 19.1885 27.249 19.0518C27.8447 18.915 28.4648 18.6758 29.1094 18.334C29.7539 17.9922 30.374 17.4795 30.9697 16.7959C31.5752 16.1123 32.083 15.3018 32.4932 14.3643C32.5713 14.2666 32.6982 14.2373 32.874 14.2764C33.0596 14.3154 33.2354 14.4131 33.4014 14.5693C33.5674 14.7158 33.626 14.8477 33.5771 14.9648C31.6338 19.3105 28.6748 21.4199 24.7002 21.293C23.8115 21.2637 23.0156 21.1221 22.3125 20.8682C21.6094 20.6045 21.0381 20.2578 20.5986 19.8281C20.1689 19.3984 19.8174 18.9004 19.5439 18.334C19.2705 17.7676 19.124 17.167 19.1045 16.5322C19.085 15.8975 19.1387 15.2383 19.2656 14.5547C19.666 12.6211 20.5645 11.0781 21.9609 9.92578C23.3574 8.77344 24.9492 8.22656 26.7363 8.28516ZM26.3555 10.4092C25.6523 10.3701 24.9395 10.7363 24.2168 11.5078C23.4941 12.2793 22.9961 13.2021 22.7227 14.2764C23.7969 14.4424 24.7051 14.3594 25.4473 14.0273C26.1992 13.6953 26.7314 13.1875 27.0439 12.5039C27.3174 12.0059 27.4053 11.5371 27.3076 11.0977C27.21 10.6484 26.8926 10.4189 26.3555 10.4092ZM41.458 8.28516C42.3174 8.31445 43.001 8.58301 43.5088 9.09082C44.0264 9.58887 44.3389 10.2188 44.4463 10.9805C44.5635 11.7324 44.5684 12.543 44.4609 13.4121C44.3633 14.2812 44.1631 15.1211 43.8604 15.9316C43.5576 16.7324 43.2061 17.4111 42.8057 17.9678C44.7881 18.2021 46.3262 17.001 47.4199 14.3643C47.4883 14.2666 47.6104 14.2373 47.7861 14.2764C47.9717 14.3154 48.1475 14.4131 48.3135 14.5693C48.4795 14.7158 48.5332 14.8477 48.4746 14.9648C48.123 15.7656 47.7324 16.459 47.3027 17.0449C46.873 17.6309 46.4385 18.0898 45.999 18.4219C45.5596 18.7441 45.0957 18.9834 44.6074 19.1396C44.1191 19.2959 43.6504 19.374 43.2012 19.374C42.752 19.3643 42.2979 19.2959 41.8389 19.1689C41.0479 20.0088 40.1641 20.5947 39.1875 20.9268C38.2109 21.2588 37.2881 21.3369 36.4189 21.1611C35.5596 20.9854 34.8271 20.5996 34.2217 20.0039C34.0068 20.9414 33.6455 22.4551 33.1377 24.5449C32.6299 26.6445 32.249 28.2412 31.9951 29.335C31.8877 29.5303 31.5752 29.6572 31.0576 29.7158C30.5303 29.7842 30.0273 29.7598 29.5488 29.6426C29.0703 29.5352 28.8359 29.374 28.8457 29.1592C30.3887 22.5576 32.1221 15.7168 34.0459 8.63672C34.1045 8.44141 34.373 8.31445 34.8516 8.25586C35.3398 8.19727 35.8281 8.24609 36.3164 8.40234C36.8047 8.55859 37.0781 8.79785 37.1367 9.12012C37.1367 9.13965 36.9951 9.5498 36.7119 10.3506C37.376 9.69629 38.123 9.17871 38.9531 8.79785C39.793 8.41699 40.6279 8.24609 41.458 8.28516ZM39.7441 10.585C39.2266 10.5752 38.6357 10.7461 37.9717 11.0977C37.3174 11.4492 36.7363 11.8887 36.2285 12.416C36.0332 13.1094 35.7744 14.0762 35.4521 15.3164C35.1299 16.5566 34.8906 17.4697 34.7344 18.0557C35.252 18.7295 35.9697 19.0859 36.8877 19.125C37.8057 19.1641 38.5576 18.8613 39.1436 18.2168C38.9189 17.9141 38.8359 17.6064 38.8945 17.2939C38.9629 16.9814 39.1289 16.7275 39.3926 16.5322C39.6562 16.3271 39.9004 16.2881 40.125 16.415C40.4375 15.7607 40.6816 15.0967 40.8574 14.4229C41.043 13.749 41.1406 13.1289 41.1504 12.5625C41.1699 11.9863 41.0576 11.5176 40.8135 11.1562C40.5791 10.7852 40.2227 10.5947 39.7441 10.585ZM51.4189 6.4834C50.9111 6.4834 50.5059 6.30762 50.2031 5.95605C49.9004 5.60449 49.7832 5.16992 49.8516 4.65234C49.9395 4.10547 50.1787 3.66602 50.5693 3.33398C50.96 3.00195 51.4336 2.84082 51.9902 2.85059C52.5273 2.85059 52.9424 3.02148 53.2354 3.36328C53.5381 3.69531 53.6504 4.125 53.5723 4.65234C53.5137 5.19922 53.2891 5.64355 52.8984 5.98535C52.5078 6.31738 52.0146 6.4834 51.4189 6.4834ZM49.1338 21.2637C47.9424 21.293 47.1611 20.9805 46.79 20.3262C46.4092 19.6719 46.3604 18.7344 46.6436 17.5137C47.0439 15.8145 47.8545 12.8555 49.0752 8.63672C49.2314 8.42188 49.5537 8.2998 50.042 8.27051C50.5303 8.24121 50.999 8.30469 51.4482 8.46094C51.8975 8.60742 52.1562 8.79785 52.2246 9.03223C51.9609 9.95996 51.6436 11.0732 51.2725 12.3721C50.9014 13.6611 50.623 14.6328 50.4375 15.2871C50.2617 15.9414 50.1055 16.5762 49.9688 17.1914C49.9102 17.5137 49.8662 17.792 49.8369 18.0264C49.8174 18.251 49.8125 18.4561 49.8223 18.6416C49.8418 18.8271 49.8906 18.9639 49.9688 19.0518C50.0566 19.1396 50.1787 19.1787 50.335 19.1689C51.0088 19.1689 51.7754 18.6855 52.6348 17.7188C53.4941 16.752 54.1875 15.6338 54.7148 14.3643C54.793 14.2568 54.9199 14.2227 55.0957 14.2617C55.2812 14.3008 55.4521 14.4033 55.6084 14.5693C55.7744 14.7256 55.8281 14.8672 55.7695 14.9941C55.4961 15.5898 55.2031 16.1562 54.8906 16.6934C54.5879 17.2207 54.2168 17.7725 53.7773 18.3486C53.3477 18.915 52.9033 19.4033 52.4443 19.8135C51.9951 20.2236 51.4775 20.5654 50.8916 20.8389C50.3154 21.1123 49.7295 21.2539 49.1338 21.2637ZM58.2305 21.2637C57.6641 21.2734 57.1611 21.2051 56.7217 21.0586C56.2822 20.9121 55.9209 20.7168 55.6377 20.4727C55.3545 20.2285 55.125 19.9062 54.9492 19.5059C54.7832 19.1055 54.6611 18.7051 54.583 18.3047C54.5049 17.8945 54.4756 17.4014 54.4951 16.8252C54.5146 16.249 54.5488 15.7168 54.5977 15.2285C54.6562 14.7305 54.7539 14.1445 54.8906 13.4707C55.0371 12.7969 55.1689 12.2109 55.2861 11.7129C55.4033 11.2148 55.5547 10.6191 55.7402 9.92578H54.832C54.5488 9.75 54.4512 9.40332 54.5391 8.88574C54.6367 8.3584 54.8174 8.0459 55.0811 7.94824H56.2822C57.2295 4.87207 57.9961 2.5918 58.582 1.10742C58.7188 0.912109 59.0459 0.80957 59.5635 0.799805C60.0811 0.790039 60.5742 0.873047 61.043 1.04883C61.5215 1.21484 61.7656 1.43457 61.7754 1.70801C61.082 3.6416 60.3984 5.72168 59.7246 7.94824H62.2441C62.5078 8.16309 62.5957 8.5293 62.5078 9.04688C62.4199 9.55469 62.2539 9.84766 62.0098 9.92578H59.1826C58.6357 11.8008 58.25 13.2705 58.0254 14.335C57.293 17.5283 57.5713 19.1396 58.8604 19.1689C59.7295 19.1885 60.6426 18.749 61.5996 17.8506C62.5664 16.9521 63.3623 15.79 63.9873 14.3643C64.0654 14.2666 64.1924 14.2373 64.3682 14.2764C64.5439 14.3154 64.71 14.4131 64.8662 14.5693C65.0322 14.7256 65.0908 14.8672 65.042 14.9941C63.2451 19.1445 60.9746 21.2344 58.2305 21.2637ZM71.3262 8.22656C72.3613 8.20703 73.2256 8.39746 73.9189 8.79785C74.6221 9.19824 75.1201 9.73535 75.4131 10.4092C75.7061 11.083 75.8574 11.8447 75.8672 12.6943C75.877 13.5439 75.7402 14.4277 75.457 15.3457C75.1738 16.2539 74.7783 17.1279 74.2705 17.9678C76.165 18.1533 77.6641 16.9521 78.7676 14.3643C78.8457 14.2666 78.9727 14.2373 79.1484 14.2764C79.334 14.3057 79.5049 14.3984 79.6611 14.5547C79.8271 14.7012 79.8809 14.8379 79.8223 14.9648C79.4414 15.7852 79.0264 16.4932 78.5771 17.0889C78.1377 17.6846 77.6982 18.1387 77.2588 18.4512C76.8193 18.7539 76.3555 18.9883 75.8672 19.1543C75.3887 19.3203 74.9248 19.3936 74.4756 19.374C74.0361 19.3447 73.5869 19.2959 73.1279 19.2275C71.7217 20.6045 70.0518 21.293 68.1182 21.293C67.5127 21.293 66.9561 21.2246 66.4482 21.0879C65.9502 20.9512 65.4863 20.7363 65.0566 20.4434C64.627 20.1406 64.29 19.75 64.0459 19.2715C63.8115 18.7832 63.6553 18.1973 63.5771 17.5137C63.4893 16.8301 63.543 16.0342 63.7383 15.126C64.1484 13.085 65.0615 11.4346 66.4775 10.1748C67.9033 8.90527 69.5195 8.25586 71.3262 8.22656ZM70.9307 10.3506C70.0908 10.3896 69.3145 10.8975 68.6016 11.874C67.8984 12.8506 67.4248 13.9443 67.1807 15.1553C66.6533 17.8311 67.127 19.1689 68.6016 19.1689C69.3535 19.1689 70.0322 18.8174 70.6377 18.1143C70.3643 17.6943 70.3643 17.2695 70.6377 16.8398C70.9111 16.4102 71.2627 16.2393 71.6924 16.3271C71.9951 15.6143 72.2246 14.9111 72.3809 14.2178C72.5371 13.5146 72.6104 12.8652 72.6006 12.2695C72.5908 11.6738 72.4443 11.2002 72.1611 10.8486C71.8779 10.4873 71.4678 10.3213 70.9307 10.3506Z" fill="#222222"/>
</svg>