<?xml version="1.0" encoding="utf-8"?>
<!-- Generator: Adobe Illustrator 27.5.0, SVG Export Plug-In . SVG Version: 6.00 Build 0)  -->
<svg version="1.1" xmlns="http://www.w3.org/2000/svg" xmlns:xlink="http://www.w3.org/1999/xlink" x="0px" y="0px"
	 viewBox="0 0 500 500" style="enable-background:new 0 0 500 500;" xml:space="preserve">
<g id="BACKGROUND">
</g>
<g id="OBJECTS">
	<g>
		<path style="fill:#CBF0B6;" d="M71.793,246.101c-7.101-11.112-11.182-90.725-4.207-94.337
			c6.975-3.611,357.855-30.275,362.455-11.486s7.215,105.799-11.094,123.96S85.742,267.93,71.793,246.101z"/>
		<g>
			<path style="fill:#381916;" d="M334.994,100.945l-58.846,35.03c0,0-10.903,2.883-10.297,4.332
				c0.606,1.448,3.232,2.512,3.232,2.512s-6.465,4.49-6.263,5.451c0.202,0.961,0.809,1.365,0.809,1.365s-1.828,1.212-0.813,1.818
				c1.015,0.606,6.513,0,6.513,0v4.849l15.715,1.414l29.705-18.411l15.988,1.003C330.737,140.307,358.883,108.421,334.994,100.945z"
				/>
			<g>
				<g>
					<path style="fill:#ECC19C;" d="M306.186,134.068c0,0,16.997-1.397,24.201-1.966c-0.053-0.077-0.106-0.154-0.14-0.238
						c-0.735-1.837,7.898-17.082-1.837-28.653c-1.286,0-5.51,20.755-30.858,28.837c-1.469-0.184-9.184-10.653-13.592,0.551
						c-4.408,11.204,5.143,15.612,10.469,13.959c-0.98,0.227-14.878,9.735-14.878,9.735l9.551,15.557
						c0,0,11.388-14.271,14.51-13.904c1.524,0.179,5.322,1.668,9.153,2.85l-10.072-12.034L306.186,134.068z"/>
					<path style="fill:#381916;" d="M324.523,121.933c1.142,0.037,2.147,0.821,2.847,2.045c0.014,0.024,0.024,0.054,0.038,0.079
						c0.152,0.274,0.293,0.562,0.412,0.875c0.038,0.098,0.061,0.21,0.095,0.312c0.085,0.254,0.172,0.505,0.235,0.778
						c0.046,0.201,0.069,0.418,0.102,0.628c0.03,0.192,0.073,0.376,0.092,0.574c0.04,0.418,0.054,0.849,0.04,1.29
						c-0.013,0.398-0.056,0.782-0.112,1.158c-0.017,0.116-0.039,0.227-0.06,0.341c-0.049,0.264-0.108,0.52-0.177,0.769
						c-0.031,0.114-0.059,0.229-0.095,0.34c-0.099,0.311-0.211,0.611-0.339,0.892c-0.059,0.13-0.127,0.244-0.192,0.367
						c-0.08,0.152-0.161,0.302-0.249,0.442c-0.089,0.142-0.181,0.275-0.277,0.404c-0.072,0.096-0.147,0.184-0.223,0.273
						c-0.722,0.847-1.606,1.36-2.56,1.329c-2.249-0.073-3.977-3.02-3.861-6.581C320.357,124.687,322.274,121.859,324.523,121.933z"
						/>
					
						<ellipse transform="matrix(0.0326 -0.9995 0.9995 0.0326 183.5898 449.9843)" style="fill:#FFFFFF;" cx="324.254" cy="130.151" rx="6.451" ry="4.074"/>
					<path style="fill:#381916;" d="M324.57,123.723c2.195,0.163,3.87,3.057,3.755,6.561c-0.085,2.598-1.133,4.791-2.564,5.766
						c-2.195-0.163-3.87-3.057-3.755-6.56C322.091,126.891,323.139,124.699,324.57,123.723z"/>
					<g>
						<path style="fill:#FFFFFF;" d="M334.994,134.273l-29.262,1.703l-3.037,12.786l10.072,12.034c4.02,1.24,8.077,2.14,9.582,0.824
							c2.939-2.571,16.347-23.327,15.245-25.531C337.183,135.265,336.155,134.724,334.994,134.273z"/>
						<path style="fill:#7AB4B8;" d="M330.387,132.102c-7.204,0.569-24.201,1.966-24.201,1.966l-0.453,1.908l29.262-1.703
							C333.189,133.57,331.056,133.085,330.387,132.102z"/>
					</g>
					<g>
						<defs>
							<path id="SVGID_1_" d="M334.994,134.273l-29.262,1.703l-3.037,12.786l10.072,12.034c4.02,1.24,8.077,2.14,9.582,0.824
								c2.939-2.571,16.347-23.327,15.245-25.531C337.183,135.265,336.155,134.724,334.994,134.273z"/>
						</defs>
						<clipPath id="SVGID_00000059285471236085625620000008544320035172212155_">
							<use xlink:href="#SVGID_1_"  style="overflow:visible;"/>
						</clipPath>
						<g style="opacity:0.4;clip-path:url(#SVGID_00000059285471236085625620000008544320035172212155_);">
							<g>
								<path style="fill:#BCBEC0;" d="M304.341,139.999c12.605-0.031,25.184-0.853,37.685-2.46c0.629-0.081,0.638-1.082,0-1
									c-12.502,1.607-25.081,2.428-37.685,2.46C303.698,139.001,303.697,140.001,304.341,139.999L304.341,139.999z"/>
							</g>
						</g>
						<g style="opacity:0.4;clip-path:url(#SVGID_00000059285471236085625620000008544320035172212155_);">
							<g>
								<path style="fill:#BCBEC0;" d="M303.14,143.262c12.46,2.788,25.178,4.073,37.945,3.824c0.643-0.013,0.645-1.013,0-1
									c-12.678,0.247-25.303-1.019-37.679-3.788C302.779,142.158,302.511,143.122,303.14,143.262L303.14,143.262z"/>
							</g>
						</g>
						<g style="opacity:0.4;clip-path:url(#SVGID_00000059285471236085625620000008544320035172212155_);">
							<g>
								<path style="fill:#BCBEC0;" d="M301.859,146.016c10.325,6.882,22.13,11.057,34.48,12.235c0.64,0.061,0.636-0.939,0-1
									c-12.171-1.161-23.804-5.318-33.975-12.098C301.827,144.795,301.326,145.66,301.859,146.016L301.859,146.016z"/>
							</g>
						</g>
					</g>
				</g>
				<path style="fill:none;stroke:#7AB4B8;stroke-linecap:round;stroke-miterlimit:10;" d="M306.88,134.911
					c-0.307,0-9.509-3.298-9.509-3.298"/>
				<path style="fill:#FFFFFF;" d="M303.669,148.821c-0.456,0-2.177-0.171-9.869-1.291c-0.305-0.044-0.514-0.327-0.471-0.631
					c0.044-0.305,0.332-0.519,0.632-0.47c3.429,0.499,9.036,1.284,9.646,1.289c0.259-0.029,0.52,0.122,0.602,0.384
					c0.094,0.293-0.069,0.606-0.362,0.699C303.818,148.81,303.784,148.821,303.669,148.821z"/>
			</g>
			<g>
				<path style="fill:#ECC19C;" d="M290.617,346.561c1.688,0.596,3.076,1.874,4.779,2.425c1.911,0.618,3.984,0.254,5.955-0.132
					c2.715-0.533,5.455-1.092,8.203-1.38c-1.191-0.5-2.214-1.029-2.93-1.609c-3.369-2.732-1.406-7.153-1.406-7.153l-15.206-1.025
					c0,0-0.128,5.164-1.022,7.246c-0.152,0.354-0.389,0.784-0.672,1.278C289.097,346.189,289.88,346.301,290.617,346.561z"/>
				<g>
					<path style="fill:#C81D29;" d="M324.257,352.892c-3.421-2.113-10.289-3.564-14.704-5.419c-2.748,0.288-5.488,0.847-8.203,1.38
						c-1.971,0.386-4.044,0.75-5.955,0.132c-1.703-0.551-3.091-1.828-4.779-2.425c-0.736-0.26-1.52-0.372-2.3-0.35
						c-1.116,1.946-2.993,4.984-3.798,8.982c14.095,0,28.189,0,42.284,0C326.323,354.473,325.539,353.685,324.257,352.892z"/>
					<path style="fill:#6CDDDD;" d="M284.519,355.192c-0.194,0.963-0.344,1.966-0.385,3.041h43.19c0,0,0.626-1.322-0.52-3.041
						C312.708,355.192,298.614,355.192,284.519,355.192z"/>
				</g>
			</g>
			<path style="fill:#2E959A;" d="M321.548,265.142c-3.655-6.579-60.393-25.046-60.393-25.046l-49.576-11.491
				c0,0-11.097,22.648-3.422,34.71s88.451,16.082,88.451,16.082s-8.804,57.814-9.901,60.15l19.737,1.97
				C306.445,341.517,325.203,271.721,321.548,265.142z"/>
			<g>
				<path style="fill:#BCBEC0;" d="M211.579,228.605c0,0-2.54,5.192-4.349,11.924c8.415,4.672,18.1,7.089,27.754,7.321
					c10.694,0.256,21.336-2.061,31.279-6.058c-3.173-1.067-5.108-1.697-5.108-1.697L211.579,228.605z"/>
			</g>
			<g>
				<rect x="70.885" y="287.644" style="fill:#6E1016;" width="91.517" height="5.974"/>
				<ellipse style="fill:#BCBEC0;" cx="271.259" cy="414.268" rx="175.16" ry="9.47"/>
				<path style="fill:#2E959A;" d="M158.005,287.644H63.476c-2.049,0-3.71-1.661-3.71-3.71V172.187c0-2.049,1.661-3.71,3.71-3.71
					h94.529c2.049,0,3.71,1.661,3.71,3.71v111.747C161.715,285.983,160.054,287.644,158.005,287.644z"/>
				<path style="fill:#6E1016;" d="M153.839,326.74c-24.673,0-44.675,20.001-44.675,44.675s20.002,44.675,44.675,44.675
					c24.673,0,44.675-20.001,44.675-44.675S178.512,326.74,153.839,326.74z M153.839,395.226c-13.151,0-23.812-10.661-23.812-23.812
					c0-13.151,10.661-23.812,23.812-23.812c13.151,0,23.812,10.661,23.812,23.812C177.651,384.565,166.99,395.226,153.839,395.226z"
					/>
				<path style="fill:#6E1016;" d="M404.467,331.294c-23.415,0-42.398,18.982-42.398,42.398c0,23.416,18.982,42.398,42.398,42.398
					c23.416,0,42.398-18.982,42.398-42.398C446.864,350.276,427.882,331.294,404.467,331.294z M404.467,396.289
					c-12.481,0-22.598-10.118-22.598-22.598c0-12.481,10.118-22.598,22.598-22.598c12.481,0,22.598,10.118,22.598,22.598
					C427.065,386.172,416.947,396.289,404.467,396.289z"/>
				<path style="fill:#FFCE25;" d="M348.878,229.082l-15.885,3.453c0,0,29.698,114.648,27.626,118.792
					c-2.072,4.144-8.978,6.906-8.978,6.906h-75.41c-2.831,0-4.99-2.533-4.542-5.328l10.887-67.881H162.402v12.432h-15.093
					c-23.705,0-42.922,19.217-42.922,42.922v24.762h256.335l39.954-50.418L348.878,229.082z"/>
				<path style="fill:#FF9538;" d="M248.827,351.093h-57.133c-4.592,0-8.315-3.723-8.315-8.315v-31.483
					c0-4.592,3.723-8.315,8.315-8.315h57.133c4.592,0,8.315,3.723,8.315,8.315v31.483
					C257.142,347.371,253.419,351.093,248.827,351.093z"/>
				<path style="fill:#FF9538;" d="M248.827,351.093h-57.133c-4.592,0-8.315-3.723-8.315-8.315v-31.483
					c0-4.592,3.723-8.315,8.315-8.315h57.133c4.592,0,8.315,3.723,8.315,8.315v31.483
					C257.142,347.371,253.419,351.093,248.827,351.093z"/>
				<g>
					
						<line style="fill:none;stroke:#BCBEC0;stroke-width:3;stroke-linecap:round;stroke-linejoin:round;stroke-miterlimit:10;" x1="192.08" y1="313.056" x2="248.686" y2="313.056"/>
					
						<line style="fill:none;stroke:#BCBEC0;stroke-width:3;stroke-linecap:round;stroke-linejoin:round;stroke-miterlimit:10;" x1="192.08" y1="321.266" x2="248.686" y2="321.266"/>
					
						<line style="fill:none;stroke:#BCBEC0;stroke-width:3;stroke-linecap:round;stroke-linejoin:round;stroke-miterlimit:10;" x1="192.08" y1="329.476" x2="248.686" y2="329.476"/>
					
						<line style="fill:none;stroke:#BCBEC0;stroke-width:3;stroke-linecap:round;stroke-linejoin:round;stroke-miterlimit:10;" x1="192.08" y1="337.687" x2="248.686" y2="337.687"/>
				</g>
				<path style="fill:#6E1016;" d="M357.865,365.14v-10.584l0,0c-2.759,2.284-6.225,3.677-6.225,3.677h-75.41h-77.716v6.907H357.865
					z"/>
				<path style="fill:#C81D29;" d="M96.099,365.14h115.339c0,0,5.525-62.159-52.489-62.159S96.099,365.14,96.099,365.14z"/>
				<path style="fill:#C81D29;" d="M158.948,312.052c44.055,0,51.467,35.838,52.485,53.088h0.004c0,0,5.525-62.159-52.489-62.159
					S96.099,365.14,96.099,365.14h1.516C101.508,347.89,114.894,312.052,158.948,312.052z"/>
				<g>
					<path style="fill:#C81D29;" d="M367.815,324.259c28.056-19.21,74.224-10.654,78.485,2.841
						c2.486,10.299-34.033,3.661-56.407,18.932c-21.957,14.987-29.182,35.759-40.546,36.114S337.087,345.298,367.815,324.259z"/>
					<path style="fill:#C81D29;" d="M367.815,331.676c25.637-17.553,66.376-11.92,76.467-0.522c1.672-0.973,2.454-2.251,2.019-4.054
						c-4.262-13.495-50.43-22.051-78.485-2.841c-20.621,14.119-26.987,35.504-25.518,47.946
						C343.558,359.781,350.873,343.276,367.815,331.676z"/>
				</g>
				<path style="fill:#6E1016;" d="M158.533,289.953H286.23c0,0,9.16-9.699,0-16.164c-9.16-6.466-74.894-7.004-81.899-9.16
					c-7.004-2.155-15.625-16.703-35.022-16.703S146.141,289.953,158.533,289.953z"/>
				<polygon style="fill:#C81D29;" points="374.738,257.109 365.83,257.109 385.695,289.953 390.008,280.914 				"/>
				<g>
					<circle style="fill:#3ABCC2;" cx="113.05" cy="226.787" r="32.502"/>
					<g>
						<g>
							<path style="fill:#FFCE25;" d="M80.086,251c-2.3-1.297,28.465-59.11,35.113-57.728c6.648,1.382,28.245,38.244,26.145,42.256
								C139.243,239.54,85.137,253.849,80.086,251z"/>
							<g>
								<defs>
									<path id="SVGID_00000028304672086486491490000009523737910081031340_" d="M80.086,251
										c-2.3-1.297,28.465-59.11,35.113-57.728c6.648,1.382,28.245,38.244,26.145,42.256
										C139.243,239.54,85.137,253.849,80.086,251z"/>
								</defs>
								<clipPath id="SVGID_00000001629014875901839970000015856651680503147708_">
									<use xlink:href="#SVGID_00000028304672086486491490000009523737910081031340_"  style="overflow:visible;"/>
								</clipPath>
								
									<circle style="clip-path:url(#SVGID_00000001629014875901839970000015856651680503147708_);fill:#C81D29;" cx="100.702" cy="213.715" r="12.35"/>
								
									<circle style="clip-path:url(#SVGID_00000001629014875901839970000015856651680503147708_);fill:#C81D29;" cx="92.984" cy="248.643" r="13.187"/>
								
									<circle style="clip-path:url(#SVGID_00000001629014875901839970000015856651680503147708_);fill:#C81D29;" cx="125.783" cy="237.079" r="13.641"/>
							</g>
						</g>
						<g>
							<path style="fill:#B07F00;" d="M141.343,235.528c-2.037,3.89-53.566,17.25-61.258,15.472
								c0.041-0.105,0.124,2.034,0.352,2.162c5.052,2.849,59.158-11.46,61.258-15.472c0.256-0.489,0.155-1.474-0.224-2.817
								C141.461,235.136,141.428,235.367,141.343,235.528z"/>
						</g>
						<path style="fill:#FFE17A;" d="M111.405,191.182c-1.608,2.089,3.004,6.855,3.004,6.855s1.953,5.557,5.59,7.274
							c0,0,1.376,6.855,7.156,9.163c0,0,0.989,5.205,6.019,8.626c0,0,0.608,4.938,4.467,8.271c0.431,0.769,0.6,8.684,6.228,7.167
							c5.628-1.517-0.31-9.363-0.31-9.363s-0.369-7.284-4.447-9.348c0,0-1.181-6.18-5.624-8.986c0,0-1.373-6.662-6.706-8.732
							c0,0-0.522-4.741-4.905-7.175C121.877,194.934,115.612,185.717,111.405,191.182z"/>
						<path style="fill:#FFCE25;" d="M105.842,245.305c0.397,2.44,0.794,4.88,1.191,7.32c0.228,1.403,2.409,1.051,2.18-0.355
							c-0.397-2.44-0.794-4.88-1.191-7.32C107.794,243.547,105.613,243.9,105.842,245.305L105.842,245.305z"/>
						<path style="fill:#FFCE25;" d="M109.369,241.124c0.397,2.44,0.794,4.88,1.191,7.32c0.228,1.403,2.409,1.051,2.18-0.355
							c-0.397-2.44-0.794-4.88-1.191-7.32C111.321,239.367,109.141,239.719,109.369,241.124L109.369,241.124z"/>
					</g>
				</g>
				<circle style="fill:#6E1016;" cx="342.095" cy="233.849" r="9.158"/>
				<g>
					<g>
						<g>
							<path style="fill:#C81D29;" d="M116.832,341.055c8.455-10.408,20.376-17.339,33.604-19.538
								c1.9-0.316,1.094-3.207-0.798-2.893c-13.665,2.272-26.194,9.557-34.928,20.31
								C113.503,340.42,115.614,342.555,116.832,341.055L116.832,341.055z"/>
						</g>
					</g>
					<g>
						<g>
							<path style="fill:#C81D29;" d="M155.986,321.156c1.93,0,1.934-3,0-3C154.055,318.156,154.052,321.156,155.986,321.156
								L155.986,321.156z"/>
						</g>
					</g>
				</g>
				<g>
					<g>
						<g>
							<path style="fill:#C81D29;" d="M357.283,352.218c5.82-8.865,14.149-15.828,23.933-19.933
								c1.169-0.491,0.656-2.427-0.532-1.929c-10.299,4.321-18.995,11.511-25.128,20.852
								C354.848,352.288,356.579,353.291,357.283,352.218L357.283,352.218z"/>
						</g>
					</g>
					<g>
						<g>
							<path style="fill:#C81D29;" d="M385.695,330.757c1.287,0,1.289-2,0-2C384.408,328.757,384.406,330.757,385.695,330.757
								L385.695,330.757z"/>
						</g>
					</g>
				</g>
			</g>
			<path style="fill:#FFFFFF;" d="M264.99,241.366c0,0-32.908,2.816-44.151-2.635s-18.372-11.943-18.372-11.943
				s57.128-84.684,81.986-73.45C315.766,163.615,264.99,241.366,264.99,241.366z"/>
			<path style="fill:#ECC19C;" d="M354.414,228.605c-1.048-3.914-8.069-10.152-10.06-10.256c-1.991-0.105-14.196,3.994-16.557,3.353
				c-1.458-0.396-36.02-10.504-37.495-12.301c-1.475-1.797,0-24.782,0-24.782h-22.634c0,0,2.859,39.19,9.112,42.525
				c3.037,1.62,46.98,3.038,48.802,3.848c1.822,0.81,4.86,3.037,8.91,0c4.05-3.037,8.151-6.953,12.783-4.691
				c4.632,2.261,2.218,10.698,3.324,10.935C351.705,237.471,355.462,235.718,354.414,228.605z"/>
			<g>
				<path style="fill:#BCBEC0;" d="M289.884,192.646c0.187-4.444,0.417-8.027,0.417-8.027h-22.634c0,0,0.252,3.436,0.765,8.345
					C275.425,194.85,282.952,194.739,289.884,192.646z"/>
			</g>
			<g>
				<defs>
					<path id="SVGID_00000165956355984258412810000014362855621818014341_" d="M354.414,228.605
						c-1.048-3.914-8.069-10.152-10.06-10.256c-1.991-0.105-14.196,3.994-16.557,3.353c-1.458-0.396-36.02-10.504-37.495-12.301
						c-1.475-1.797,0-24.782,0-24.782h-22.634c0,0,2.859,39.19,9.112,42.525c3.037,1.62,46.98,3.038,48.802,3.848
						c1.822,0.81,4.86,3.037,8.91,0c4.05-3.037,8.151-6.953,12.783-4.691c4.632,2.261,2.218,10.698,3.324,10.935
						C351.705,237.471,355.462,235.718,354.414,228.605z"/>
				</defs>
				<clipPath id="SVGID_00000167355216710772129630000005354234585861255054_">
					<use xlink:href="#SVGID_00000165956355984258412810000014362855621818014341_"  style="overflow:visible;"/>
				</clipPath>
				<g style="clip-path:url(#SVGID_00000167355216710772129630000005354234585861255054_);">
					<g>
						<path style="fill:#6E1016;" d="M345.834,222.605c3.181,1.292,5.65,3.18,6.597,6.628c0.891,3.245,0.267,6.659-0.312,9.897
							c-0.113,0.629,0.851,0.899,0.964,0.266c0.682-3.808,1.382-7.851-0.059-11.576c-1.255-3.245-3.814-4.916-6.925-6.179
							C345.504,221.399,345.245,222.366,345.834,222.605L345.834,222.605z"/>
					</g>
				</g>
			</g>
			<path style="fill:#C81D29;" d="M280.896,152.388c-8.789,0-18.307,9.554-17.175,35.13h30.932
				C294.653,187.518,300.525,152.388,280.896,152.388z"/>
			<g>
				<g>
					<g>
						<path style="fill:#6E1016;" d="M290.962,142.819c0.123-1.666,1.191-4.382,3.167-4.524c0.638-0.046,0.643-1.046,0-1
							c-2.59,0.186-4,3.255-4.167,5.524C289.915,143.461,290.915,143.458,290.962,142.819L290.962,142.819z"/>
					</g>
				</g>
				<g>
					<defs>
						<path id="SVGID_00000064325857215419213930000008886547272176319631_" d="M306.186,134.068c0,0,16.997-1.397,24.201-1.966
							c-0.053-0.077-0.106-0.154-0.14-0.238c-0.735-1.837,7.898-17.082-1.837-28.653c-1.286,0-5.51,20.755-30.858,28.837
							c-1.469-0.184-9.184-10.653-13.592,0.551c-4.408,11.204,5.143,15.612,10.469,13.959c-0.98,0.227-14.878,9.735-14.878,9.735
							l9.551,15.557c0,0,11.388-14.271,14.51-13.904c1.524,0.179,5.322,1.668,9.153,2.85l-10.072-12.034L306.186,134.068z"/>
					</defs>
					<clipPath id="SVGID_00000071537643034377129510000016083159006561512603_">
						<use xlink:href="#SVGID_00000064325857215419213930000008886547272176319631_"  style="overflow:visible;"/>
					</clipPath>
					<g style="clip-path:url(#SVGID_00000071537643034377129510000016083159006561512603_);">
						<g>
							<path style="fill:#6E1016;" d="M282.195,135.89c2.305-4.11,6.928-3.112,9.729-0.142c2.284,2.421,3.479,5.501,3.571,8.81
								c0.018,0.642,1.018,0.645,1,0c-0.121-4.344-2.084-8.556-5.692-11.092c-3.275-2.302-7.456-1.674-9.471,1.919
								C281.016,135.947,281.88,136.452,282.195,135.89L282.195,135.89z"/>
						</g>
					</g>
				</g>
			</g>
			<path style="fill:#381916;" d="M317.238,120.975c0,0,3.924-5.102,7.928-4.608s4.827,2.962,5.156,2.715
				c0.329-0.247,0.741-2.057,0-3.127c-0.741-1.07-3.69-2.743-6.01-2.386C321.105,114.063,316.58,119.988,317.238,120.975z"/>
			<g>
				<path style="fill:#C81D29;" d="M290.281,84.769c-26.574,9.541-22.472,38.33-13.751,48.867l51.78-36.863
					C328.31,96.773,316.855,75.228,290.281,84.769z"/>
				<path style="fill:#C81D29;" d="M291.895,88.663c19.746-7.09,31.138,2.98,35.692,8.625l0.724-0.515
					c0,0-11.456-21.545-38.03-12.004c-23.291,8.363-23.017,31.509-16.721,44.195C269.046,115.891,270.822,96.229,291.895,88.663z"/>
				<polygon style="fill:#C81D29;" points="303.56,119.658 296.767,123.701 302.125,158.421 305.733,159.597 				"/>
				<path style="fill:#FFCE25;" d="M274.936,136.148c0.83,2.168,70.648-38.373,68.878-40.143c-1.771-1.771-7.968-4.604-13.988-2.656
					S273.697,132.911,274.936,136.148z"/>
			</g>
			<path style="fill:#FFFFFF;" d="M188.55,207.026c16.773,0,33.547,0,50.32,0c0.717,0,0.718-1.114,0-1.114
				c-16.773,0-33.547,0-50.32,0C187.834,205.912,187.832,207.026,188.55,207.026L188.55,207.026z"/>
			<path style="fill:#FFFFFF;" d="M218.401,213.588c-5.212,0-10.424,0-15.636,0c-0.717,0-0.718,1.114,0,1.114
				c5.212,0,10.424,0,15.636,0C219.118,214.702,219.119,213.588,218.401,213.588L218.401,213.588z"/>
			<path style="fill:#FFFFFF;" d="M254.506,169.238c-16.205,0-32.409,0-48.614,0c-0.717,0-0.718,1.114,0,1.114
				c16.205,0,32.409,0,48.614,0C255.223,170.352,255.224,169.238,254.506,169.238L254.506,169.238z"/>
			<path style="fill:#FFFFFF;" d="M261.329,163.268c-6.444,0-12.888,0-19.332,0c-0.717,0-0.718,1.114,0,1.114
				c6.444,0,12.888,0,19.332,0C262.046,164.382,262.047,163.268,261.329,163.268L261.329,163.268z"/>
			<g>
				<g>
					<path style="fill:#2E959A;" d="M216.411,252.877c-5.875,0-11.751,0-17.626,0c-0.643,0-0.645,1,0,1c5.875,0,11.751,0,17.626,0
						C217.054,253.877,217.055,252.877,216.411,252.877L216.411,252.877z"/>
				</g>
			</g>
			<g>
				<g>
					<path style="fill:#2E959A;" d="M66.803,191.616c-1.137,1.137-2.274,2.274-3.412,3.412c-0.456,0.456,0.251,1.163,0.707,0.707
						c1.137-1.137,2.274-2.274,3.412-3.412C67.966,191.868,67.259,191.16,66.803,191.616L66.803,191.616z"/>
				</g>
			</g>
			<g>
				<g>
					<path style="fill:#2E959A;" d="M71.99,194.313c-11.561,0-23.123,0-34.684,0c-0.643,0-0.645,1,0,1c11.561,0,23.123,0,34.684,0
						C72.633,195.313,72.634,194.313,71.99,194.313L71.99,194.313z"/>
				</g>
			</g>
			<g>
				<g>
					<path style="fill:#2E959A;" d="M64.314,202.557c-5.117,0-10.235,0-15.352,0c-0.643,0-0.645,1,0,1c5.117,0,10.235,0,15.352,0
						C64.957,203.557,64.959,202.557,64.314,202.557L64.314,202.557z"/>
				</g>
			</g>
			<g>
				<g>
					<path style="fill:#2E959A;" d="M69.078,264.68c-2.653,2.748-5.307,5.496-7.96,8.245c-0.447,0.463,0.259,1.171,0.707,0.707
						c2.653-2.748,5.307-5.496,7.96-8.245C70.232,264.924,69.526,264.216,69.078,264.68L69.078,264.68z"/>
				</g>
			</g>
			<g>
				<g>
					<path style="fill:#2E959A;" d="M30.767,272.641c15.541,0,31.083,0,46.624,0c0.643,0,0.645-1,0-1c-15.541,0-31.083,0-46.624,0
						C30.124,271.641,30.123,272.641,30.767,272.641L30.767,272.641z"/>
				</g>
			</g>
			<g>
				<g>
					<path style="fill:#2E959A;" d="M51.236,265.818c7.107,0,14.215,0,21.322,0c0.643,0,0.645-1,0-1c-7.107,0-14.215,0-21.322,0
						C50.593,264.818,50.592,265.818,51.236,265.818L51.236,265.818z"/>
				</g>
			</g>
			<g>
				<g>
					<path style="fill:#2E959A;" d="M24.513,181.667c16.773,0,33.547,0,50.32,0c0.643,0,0.645-1,0-1c-16.773,0-33.547,0-50.32,0
						C23.869,180.667,23.868,181.667,24.513,181.667L24.513,181.667z"/>
				</g>
			</g>
			<g>
				<g>
					<path style="fill:#C81D29;" d="M252.074,121.636c9.43,0,18.861,0,28.291,0c0.643,0,0.645-1,0-1c-9.43,0-18.861,0-28.291,0
						C251.43,120.636,251.429,121.636,252.074,121.636L252.074,121.636z"/>
				</g>
			</g>
			<g>
				<g>
					<path style="fill:#C81D29;" d="M260.473,127.383c6.262,0,12.525,0,18.787,0c0.643,0,0.645-1,0-1c-6.262,0-12.525,0-18.787,0
						C259.829,126.383,259.828,127.383,260.473,127.383L260.473,127.383z"/>
				</g>
			</g>
			<g>
				<g>
					<path style="fill:#C81D29;" d="M261.357,104.839c7.589,0,15.177,0,22.765,0c0.643,0,0.645-1,0-1c-7.588,0-15.177,0-22.765,0
						C260.713,103.839,260.712,104.839,261.357,104.839L261.357,104.839z"/>
				</g>
			</g>
		</g>
	</g>
</g>
</svg>
